<svg xmlns="http://www.w3.org/2000/svg" width="66" height="66" viewBox="0 0 66 66"><path fill="#00a185" d="M32.98.8a32.21 32.21 0 1 1 0 64.43 32.21 32.21 0 0 1 0-64.42zm3.6 42.9l-5.9 5.88c-.15.16 2.42-2.4 5.9-5.89zM53.8 26.46L36.57 43.7z"/><path fill="#63a63e" d="M32.98.8a32.21 32.21 0 1 1 0 64.43 32.21 32.21 0 0 1 0-64.42zm3.6 42.9l-5.9 5.88c-.15.16 2.42-2.4 5.9-5.89zM53.8 26.46L36.57 43.7z"/><path fill="#fff" d="M53.48 26.47L30.37 49.58a1.2 1.2 0 0 1-1.71 0l-3.42-3.45-1.7-1.72-7.95-8.35a1.27 1.27 0 0 1-.36-.88c0-.31.12-.61.36-.85l3.48-3.14c.24-.24.55-.36.86-.35.3 0 .61.12.85.35l7.88 8.04a1.2 1.2 0 0 0 1.7 0l18-17.93a1.2 1.2 0 0 1 1.7 0l3.42 3.45c.47.47.47 1.25 0 1.72z"/></svg>